<svg width="172" height="25" viewBox="0 0 172 25" fill="none" xmlns="http://www.w3.org/2000/svg">
<path d="M20.3409 0.727272V24H14.7955V5.22727H6.15909V24H0.613636V0.727272H20.3409ZM45.5448 12.3636C45.5448 14.9242 45.0523 17.0947 44.0675 18.875C43.0827 20.6553 41.7493 22.0076 40.0675 22.9318C38.3933 23.8561 36.5145 24.3182 34.4311 24.3182C32.3402 24.3182 30.4577 23.8523 28.7834 22.9205C27.1092 21.9886 25.7796 20.6364 24.7948 18.8636C23.8175 17.0833 23.3289 14.9167 23.3289 12.3636C23.3289 9.80303 23.8175 7.63258 24.7948 5.85227C25.7796 4.07197 27.1092 2.7197 28.7834 1.79545C30.4577 0.871211 32.3402 0.40909 34.4311 0.40909C36.5145 0.40909 38.3933 0.871211 40.0675 1.79545C41.7493 2.7197 43.0827 4.07197 44.0675 5.85227C45.0523 7.63258 45.5448 9.80303 45.5448 12.3636ZM39.7948 12.3636C39.7948 10.8485 39.5789 9.56818 39.147 8.52273C38.7228 7.47727 38.1092 6.6856 37.3061 6.14773C36.5107 5.60985 35.5523 5.34091 34.4311 5.34091C33.3175 5.34091 32.3592 5.60985 31.5561 6.14773C30.7531 6.6856 30.1357 7.47727 29.7039 8.52273C29.2796 9.56818 29.0675 10.8485 29.0675 12.3636C29.0675 13.8788 29.2796 15.1591 29.7039 16.2045C30.1357 17.25 30.7531 18.0417 31.5561 18.5795C32.3592 19.1174 33.3175 19.3864 34.4311 19.3864C35.5523 19.3864 36.5107 19.1174 37.3061 18.5795C38.1092 18.0417 38.7228 17.25 39.147 16.2045C39.5789 15.1591 39.7948 13.8788 39.7948 12.3636ZM46.6975 24V19.5909L47.3339 19.5227C48.152 19.4242 48.8187 19.0947 49.3339 18.5341C49.849 17.9659 50.2392 17.0644 50.5043 15.8295C50.777 14.5871 50.9513 12.9091 51.027 10.7955L51.402 0.727272H67.7316V24H62.2884V5.15909H56.5952L56.2316 12.8636C56.1028 15.5227 55.7657 17.6705 55.2202 19.3068C54.6748 20.9356 53.8301 22.125 52.6861 22.875C51.5498 23.625 50.0233 24 48.1066 24H46.6975ZM70.1201 0.727272H75.7337V14.1364H75.9269L85.086 0.727272H89.9269V24H84.3019V10.5682H84.1542L74.8815 24H70.1201V0.727272ZM106.56 24L99.2416 14.3409H97.9689V24H92.3439V0.727272H97.9689V9.76136H98.8666L106.071 0.727272H113.105L104.139 11.7159L113.571 24H106.56ZM135.096 12.3636C135.096 14.9242 134.604 17.0947 133.619 18.875C132.634 20.6553 131.301 22.0076 129.619 22.9318C127.945 23.8561 126.066 24.3182 123.982 24.3182C121.891 24.3182 120.009 23.8523 118.335 22.9205C116.66 21.9886 115.331 20.6364 114.346 18.8636C113.369 17.0833 112.88 14.9167 112.88 12.3636C112.88 9.80303 113.369 7.63258 114.346 5.85227C115.331 4.07197 116.66 2.7197 118.335 1.79545C120.009 0.871211 121.891 0.40909 123.982 0.40909C126.066 0.40909 127.945 0.871211 129.619 1.79545C131.301 2.7197 132.634 4.07197 133.619 5.85227C134.604 7.63258 135.096 9.80303 135.096 12.3636ZM129.346 12.3636C129.346 10.8485 129.13 9.56818 128.698 8.52273C128.274 7.47727 127.66 6.6856 126.857 6.14773C126.062 5.60985 125.104 5.34091 123.982 5.34091C122.869 5.34091 121.91 5.60985 121.107 6.14773C120.304 6.6856 119.687 7.47727 119.255 8.52273C118.831 9.56818 118.619 10.8485 118.619 12.3636C118.619 13.8788 118.831 15.1591 119.255 16.2045C119.687 17.25 120.304 18.0417 121.107 18.5795C121.91 19.1174 122.869 19.3864 123.982 19.3864C125.104 19.3864 126.062 19.1174 126.857 18.5795C127.66 18.0417 128.274 17.25 128.698 16.2045C129.13 15.1591 129.346 13.8788 129.346 12.3636ZM137.26 0.727272H144.226L150.135 15.1364H150.408L156.317 0.727272H163.283V24H157.806V9.70455H157.612L152.021 23.8523H148.521L142.931 9.625H142.737V24H137.26V0.727272ZM168.796 24.3295C167.978 24.3295 167.277 24.0417 166.694 23.4659C166.118 22.8902 165.834 22.1932 165.842 21.375C165.834 20.572 166.118 19.8864 166.694 19.3182C167.277 18.7424 167.978 18.4545 168.796 18.4545C169.569 18.4545 170.251 18.7424 170.842 19.3182C171.44 19.8864 171.743 20.572 171.751 21.375C171.743 21.9205 171.599 22.4167 171.319 22.8636C171.046 23.3106 170.687 23.6667 170.24 23.9318C169.8 24.197 169.319 24.3295 168.796 24.3295Z" fill="black"/>
</svg>
